<?xml version="1.0" encoding="UTF-8" standalone="no"?>
<svg
   xmlns:dc="http://purl.org/dc/elements/1.1/"
   xmlns:cc="http://creativecommons.org/ns#"
   xmlns:rdf="http://www.w3.org/1999/02/22-rdf-syntax-ns#"
   xmlns:svg="http://www.w3.org/2000/svg"
   xmlns="http://www.w3.org/2000/svg"
   xmlns:sodipodi="http://sodipodi.sourceforge.net/DTD/sodipodi-0.dtd"
   xmlns:inkscape="http://www.inkscape.org/namespaces/inkscape"
   width="24.976665mm"
   height="24.976665mm"
   viewBox="0 0 24.976665 24.976665"
   version="1.1"
   id="svg8"
   sodipodi:docname="logo.svg"
   inkscape:version="1.0.1 (3bc2e813f5, 2020-09-07)">
  <defs
     id="defs2" />
  <sodipodi:namedview
     id="base"
     pagecolor="#ffffff"
     bordercolor="#666666"
     borderopacity="1.0"
     inkscape:pageopacity="0.0"
     inkscape:pageshadow="2"
     inkscape:zoom="3.959798"
     inkscape:cx="69.271932"
     inkscape:cy="52.568029"
     inkscape:document-units="mm"
     inkscape:current-layer="layer1"
     inkscape:document-rotation="0"
     showgrid="false"
     inkscape:window-width="958"
     inkscape:window-height="1030"
     inkscape:window-x="960"
     inkscape:window-y="0"
     inkscape:window-maximized="0" />
  <metadata
     id="metadata5">
    <rdf:RDF>
      <cc:Work
         rdf:about="">
        <dc:format>image/svg+xml</dc:format>
        <dc:type
           rdf:resource="http://purl.org/dc/dcmitype/StillImage" />
        <dc:title></dc:title>
      </cc:Work>
    </rdf:RDF>
  </metadata>
  <g
     inkscape:label="Layer 1"
     inkscape:groupmode="layer"
     id="layer1"
     transform="translate(-4.167711,-2.239451)">
    <g
       id="g18"
       style="clip-rule:evenodd;fill-rule:evenodd;stroke-linejoin:round;stroke-miterlimit:2"
       transform="matrix(0.26458333,0,0,0.26458333,4.167711,2.239451)">
      <path
         d="M 47.2,94.4 C 73.093,94.4 94.4,73.093 94.4,47.2 94.4,21.307 73.093,0 47.2,0 21.307,0 0,21.307 0,47.2 0,73.093 21.307,94.4 47.2,94.4"
         style="fill:#93c01f;fill-rule:nonzero"
         id="path10" />
      <path
         d="m 36.64,17.59 c 4.302,-4.3 11.378,-4.3 15.68,0 l 10.37,10.37 c 4.3,4.302 4.3,11.378 0,15.68 l -11,11 c -0.993,0.993 -2.627,0.993 -3.62,0 L 39.63,46.2 c -0.993,-0.993 -0.993,-2.627 0,-3.62 l 5.06,-5.06 c 0.993,-0.993 2.627,-0.993 3.62,0 l 1.57,1.56 3.26,-3.25 -5.64,-5.71 c -1.652,-1.631 -4.348,-1.631 -6,0 L 30.13,41.47 c -1.631,1.652 -1.631,4.348 0,6 L 46.9,64.26 c 1.65,1.637 4.35,1.637 6,0 L 68.12,49.12 c 4.302,-4.3 11.378,-4.3 15.68,0 l 0.84,0.84 -26.89,26.84 c -4.302,4.3 -11.378,4.3 -15.68,0 L 9.75,44.48 Z"
         style="fill:#ffffff;fill-rule:nonzero"
         id="path16" />
    </g>
  </g>
</svg>
